<mxfile host="app.diagrams.net" agent="Mozilla/5.0 (X11; Linux x86_64) AppleWebKit/537.36 (KHTML, like Gecko) Chrome/129.0.0.0 Safari/537.36" version="26.1.1">
  <diagram name="Page-1" id="cYJbhZ5vrOCVjEv-nusw">
    <mxGraphModel dx="989" dy="606" grid="1" gridSize="10" guides="1" tooltips="1" connect="1" arrows="1" fold="1" page="1" pageScale="1" pageWidth="850" pageHeight="1100" math="0" shadow="0">
      <root>
        <mxCell id="0" />
        <mxCell id="1" parent="0" />
        <mxCell id="u8iAVL2vIk1AWjZpkrSd-3" value="ALICE" style="rounded=1;whiteSpace=wrap;html=1;" vertex="1" parent="1">
          <mxGeometry x="150" y="250" width="120" height="60" as="geometry" />
        </mxCell>
        <mxCell id="u8iAVL2vIk1AWjZpkrSd-4" value="BOB" style="rounded=1;whiteSpace=wrap;html=1;" vertex="1" parent="1">
          <mxGeometry x="580" y="250" width="120" height="60" as="geometry" />
        </mxCell>
        <mxCell id="u8iAVL2vIk1AWjZpkrSd-7" style="edgeStyle=orthogonalEdgeStyle;rounded=0;orthogonalLoop=1;jettySize=auto;html=1;" edge="1" parent="1" source="u8iAVL2vIk1AWjZpkrSd-5" target="u8iAVL2vIk1AWjZpkrSd-4">
          <mxGeometry relative="1" as="geometry" />
        </mxCell>
        <mxCell id="u8iAVL2vIk1AWjZpkrSd-5" value="" style="shape=orEllipse;perimeter=ellipsePerimeter;whiteSpace=wrap;html=1;backgroundOutline=1;" vertex="1" parent="1">
          <mxGeometry x="405" y="260" width="40" height="40" as="geometry" />
        </mxCell>
        <mxCell id="u8iAVL2vIk1AWjZpkrSd-6" style="edgeStyle=orthogonalEdgeStyle;rounded=0;orthogonalLoop=1;jettySize=auto;html=1;" edge="1" parent="1" source="u8iAVL2vIk1AWjZpkrSd-3" target="u8iAVL2vIk1AWjZpkrSd-5">
          <mxGeometry relative="1" as="geometry">
            <mxPoint x="380" y="310" as="targetPoint" />
          </mxGeometry>
        </mxCell>
        <mxCell id="u8iAVL2vIk1AWjZpkrSd-8" value="NOISE" style="rounded=1;whiteSpace=wrap;html=1;" vertex="1" parent="1">
          <mxGeometry x="365" y="348" width="120" height="60" as="geometry" />
        </mxCell>
        <mxCell id="u8iAVL2vIk1AWjZpkrSd-9" style="edgeStyle=orthogonalEdgeStyle;rounded=0;orthogonalLoop=1;jettySize=auto;html=1;entryX=0.5;entryY=1;entryDx=0;entryDy=0;" edge="1" parent="1" source="u8iAVL2vIk1AWjZpkrSd-8" target="u8iAVL2vIk1AWjZpkrSd-5">
          <mxGeometry relative="1" as="geometry" />
        </mxCell>
        <mxCell id="u8iAVL2vIk1AWjZpkrSd-18" style="edgeStyle=orthogonalEdgeStyle;rounded=0;orthogonalLoop=1;jettySize=auto;html=1;entryX=0;entryY=0.5;entryDx=0;entryDy=0;dashed=1;dashPattern=8 8;" edge="1" parent="1" source="u8iAVL2vIk1AWjZpkrSd-10" target="u8iAVL2vIk1AWjZpkrSd-11">
          <mxGeometry relative="1" as="geometry" />
        </mxCell>
        <mxCell id="u8iAVL2vIk1AWjZpkrSd-10" value="ALICE" style="rounded=1;whiteSpace=wrap;html=1;" vertex="1" parent="1">
          <mxGeometry x="750" y="348" width="120" height="60" as="geometry" />
        </mxCell>
        <mxCell id="u8iAVL2vIk1AWjZpkrSd-11" value="BOB" style="rounded=1;whiteSpace=wrap;html=1;" vertex="1" parent="1">
          <mxGeometry x="1170" y="348" width="120" height="60" as="geometry" />
        </mxCell>
        <mxCell id="u8iAVL2vIk1AWjZpkrSd-12" style="edgeStyle=orthogonalEdgeStyle;rounded=0;orthogonalLoop=1;jettySize=auto;html=1;" edge="1" parent="1" target="u8iAVL2vIk1AWjZpkrSd-11">
          <mxGeometry relative="1" as="geometry">
            <mxPoint x="1044.9999999999998" y="290" as="sourcePoint" />
          </mxGeometry>
        </mxCell>
        <mxCell id="u8iAVL2vIk1AWjZpkrSd-14" style="edgeStyle=orthogonalEdgeStyle;rounded=0;orthogonalLoop=1;jettySize=auto;html=1;endArrow=none;endFill=1;startArrow=classic;startFill=0;" edge="1" parent="1" source="u8iAVL2vIk1AWjZpkrSd-10">
          <mxGeometry relative="1" as="geometry">
            <mxPoint x="1004.9999999999998" y="290" as="targetPoint" />
            <Array as="points">
              <mxPoint x="810" y="290" />
            </Array>
          </mxGeometry>
        </mxCell>
        <mxCell id="u8iAVL2vIk1AWjZpkrSd-19" value="noiseless" style="text;html=1;align=center;verticalAlign=middle;resizable=0;points=[];autosize=1;strokeColor=none;fillColor=none;" vertex="1" parent="1">
          <mxGeometry x="990" y="360" width="70" height="30" as="geometry" />
        </mxCell>
        <mxCell id="u8iAVL2vIk1AWjZpkrSd-20" value="01011001..." style="text;html=1;align=center;verticalAlign=middle;resizable=0;points=[];autosize=1;strokeColor=none;fillColor=none;" vertex="1" parent="1">
          <mxGeometry x="885" y="260" width="90" height="30" as="geometry" />
        </mxCell>
        <mxCell id="u8iAVL2vIk1AWjZpkrSd-21" value="01101001..." style="text;html=1;align=center;verticalAlign=middle;resizable=0;points=[];autosize=1;strokeColor=none;fillColor=none;" vertex="1" parent="1">
          <mxGeometry x="1065" y="258" width="90" height="30" as="geometry" />
        </mxCell>
        <mxCell id="u8iAVL2vIk1AWjZpkrSd-22" value="" style="ellipse;whiteSpace=wrap;html=1;aspect=fixed;" vertex="1" parent="1">
          <mxGeometry x="1005" y="270" width="40" height="40" as="geometry" />
        </mxCell>
        <mxCell id="u8iAVL2vIk1AWjZpkrSd-23" value="01011001..." style="text;html=1;align=center;verticalAlign=middle;resizable=0;points=[];autosize=1;strokeColor=none;fillColor=none;" vertex="1" parent="1">
          <mxGeometry x="285" y="250" width="90" height="30" as="geometry" />
        </mxCell>
        <mxCell id="u8iAVL2vIk1AWjZpkrSd-24" value="01101000..." style="text;html=1;align=center;verticalAlign=middle;resizable=0;points=[];autosize=1;strokeColor=none;fillColor=none;" vertex="1" parent="1">
          <mxGeometry x="465" y="250" width="90" height="30" as="geometry" />
        </mxCell>
        <mxCell id="u8iAVL2vIk1AWjZpkrSd-25" value="00110001..." style="text;html=1;align=center;verticalAlign=middle;resizable=0;points=[];autosize=1;strokeColor=none;fillColor=none;" vertex="1" parent="1">
          <mxGeometry x="415" y="318" width="90" height="30" as="geometry" />
        </mxCell>
        <mxCell id="u8iAVL2vIk1AWjZpkrSd-26" value="P(B|A)" style="text;html=1;align=center;verticalAlign=middle;resizable=0;points=[];autosize=1;strokeColor=none;fillColor=none;" vertex="1" parent="1">
          <mxGeometry x="490" y="378" width="60" height="30" as="geometry" />
        </mxCell>
        <mxCell id="u8iAVL2vIk1AWjZpkrSd-27" value="P(B|A)" style="text;html=1;align=center;verticalAlign=middle;resizable=0;points=[];autosize=1;strokeColor=none;fillColor=none;" vertex="1" parent="1">
          <mxGeometry x="995" y="240" width="60" height="30" as="geometry" />
        </mxCell>
      </root>
    </mxGraphModel>
  </diagram>
</mxfile>
